<svg width="30" height="30" viewBox="0 0 30 30" fill="none" xmlns="http://www.w3.org/2000/svg">
<path d="M7.40785 17.8449L6.45852 21.3889L2.98876 21.4623C1.95181 19.539 1.36363 17.3385 1.36363 15.0001C1.36363 12.7388 1.91356 10.6064 2.88835 8.72882H2.88909L5.97816 9.29516L7.33135 12.3657C7.04813 13.1914 6.89376 14.0777 6.89376 15.0001C6.89387 16.001 7.07519 16.9601 7.40785 17.8449Z" fill="none"/>
<path d="M28.3981 12.4525C28.5547 13.2774 28.6364 14.1293 28.6364 15C28.6364 15.9762 28.5337 16.9285 28.3382 17.8471C27.6744 20.973 25.9398 23.7025 23.537 25.6341L23.5363 25.6333L19.6454 25.4348L19.0947 21.9972C20.6891 21.0622 21.9352 19.5989 22.5915 17.8471H15.2998V12.4525H22.6979H28.3981Z" fill="#fff"/>
<path d="M23.5362 25.6334L23.537 25.6342C21.2001 27.5125 18.2315 28.6364 15 28.6364C9.80695 28.6364 5.29198 25.7338 2.98877 21.4623L7.40786 17.845C8.55944 20.9184 11.5242 23.1062 15 23.1062C16.494 23.1062 17.8936 22.7023 19.0946 21.9973L23.5362 25.6334Z" fill="#fff"/>
<path d="M23.7041 4.50299L19.2865 8.11961C18.0435 7.34266 16.5742 6.89383 15 6.89383C11.4456 6.89383 8.42535 9.18202 7.33146 12.3656L2.88914 8.72878H2.8884C5.15789 4.35315 9.7298 1.36365 15 1.36365C18.3087 1.36365 21.3424 2.54223 23.7041 4.50299Z" fill="#fff"/>
</svg>
