<svg width="344" height="104" viewBox="0 0 344 104" fill="none" xmlns="http://www.w3.org/2000/svg">
<path d="M124.12 48C123.24 48 122.5 47.7 121.9 47.1C121.3 46.5 121 45.76 121 44.88V4.26C121 3.34 121.3 2.6 121.9 2.04C122.5 1.44 123.24 1.14 124.12 1.14H138.46C141.18 1.14 143.56 1.68 145.6 2.76C147.68 3.8 149.3 5.26 150.46 7.14C151.66 9.02 152.26 11.18 152.26 13.62C152.26 15.58 151.72 17.36 150.64 18.96C149.6 20.52 148.16 21.76 146.32 22.68C148.96 23.32 151.08 24.58 152.68 26.46C154.28 28.34 155.08 30.8 155.08 33.84C155.08 36.6 154.42 39.04 153.1 41.16C151.82 43.28 150.02 44.96 147.7 46.2C145.38 47.4 142.72 48 139.72 48H124.12ZM127.24 42.24H139.72C141.56 42.24 143.18 41.92 144.58 41.28C145.98 40.64 147.08 39.7 147.88 38.46C148.68 37.22 149.08 35.68 149.08 33.84C149.08 32.12 148.68 30.7 147.88 29.58C147.08 28.46 145.98 27.62 144.58 27.06C143.18 26.46 141.56 26.16 139.72 26.16H127.24V42.24ZM127.24 20.4H138.46C140.74 20.4 142.6 19.84 144.04 18.72C145.52 17.6 146.26 15.9 146.26 13.62C146.26 11.34 145.52 9.66 144.04 8.58C142.6 7.46 140.74 6.9 138.46 6.9H127.24V20.4ZM167.479 48C166.599 48 165.859 47.7 165.259 47.1C164.659 46.5 164.359 45.76 164.359 44.88V4.26C164.359 3.34 164.659 2.6 165.259 2.04C165.859 1.44 166.599 1.14 167.479 1.14C168.399 1.14 169.139 1.44 169.699 2.04C170.299 2.6 170.599 3.34 170.599 4.26V44.88C170.599 45.76 170.299 46.5 169.699 47.1C169.139 47.7 168.399 48 167.479 48ZM185.702 48C184.822 48 184.082 47.7 183.482 47.1C182.882 46.5 182.582 45.76 182.582 44.88V4.26C182.582 3.34 182.882 2.6 183.482 2.04C184.082 1.44 184.822 1.14 185.702 1.14H200.042C202.762 1.14 205.142 1.68 207.182 2.76C209.262 3.8 210.882 5.26 212.042 7.14C213.242 9.02 213.842 11.18 213.842 13.62C213.842 15.58 213.302 17.36 212.222 18.96C211.182 20.52 209.742 21.76 207.902 22.68C210.542 23.32 212.662 24.58 214.262 26.46C215.862 28.34 216.662 30.8 216.662 33.84C216.662 36.6 216.002 39.04 214.682 41.16C213.402 43.28 211.602 44.96 209.282 46.2C206.962 47.4 204.302 48 201.302 48H185.702ZM188.822 42.24H201.302C203.142 42.24 204.762 41.92 206.162 41.28C207.562 40.64 208.662 39.7 209.462 38.46C210.262 37.22 210.662 35.68 210.662 33.84C210.662 32.12 210.262 30.7 209.462 29.58C208.662 28.46 207.562 27.62 206.162 27.06C204.762 26.46 203.142 26.16 201.302 26.16H188.822V42.24ZM188.822 20.4H200.042C202.322 20.4 204.182 19.84 205.622 18.72C207.102 17.6 207.842 15.9 207.842 13.62C207.842 11.34 207.102 9.66 205.622 8.58C204.182 7.46 202.322 6.9 200.042 6.9H188.822V20.4ZM229.001 48C228.121 48 227.381 47.7 226.781 47.1C226.221 46.5 225.941 45.76 225.941 44.88V4.26C225.941 3.38 226.241 2.64 226.841 2.04C227.441 1.44 228.161 1.14 229.001 1.14C229.881 1.14 230.621 1.44 231.221 2.04C231.821 2.64 232.121 3.38 232.121 4.26V41.76H253.841C254.721 41.76 255.461 42.06 256.061 42.66C256.661 43.26 256.961 44 256.961 44.88C256.961 45.76 256.661 46.5 256.061 47.1C255.461 47.7 254.721 48 253.841 48H229.001ZM267.558 48C266.678 48 265.938 47.7 265.338 47.1C264.738 46.5 264.438 45.76 264.438 44.88V4.26C264.438 3.34 264.738 2.6 265.338 2.04C265.938 1.44 266.678 1.14 267.558 1.14C268.478 1.14 269.218 1.44 269.778 2.04C270.378 2.6 270.678 3.34 270.678 4.26V44.88C270.678 45.76 270.378 46.5 269.778 47.1C269.218 47.7 268.478 48 267.558 48ZM304.32 48.6C300.8 48.6 297.58 48.02 294.66 46.86C291.74 45.66 289.22 44 287.1 41.88C285.02 39.72 283.4 37.18 282.24 34.26C281.08 31.3 280.5 28.06 280.5 24.54C280.5 21.02 281.08 17.8 282.24 14.88C283.4 11.96 285.02 9.44 287.1 7.32C289.22 5.16 291.74 3.5 294.66 2.34C297.58 1.14 300.8 0.539999 304.32 0.539999C307.84 0.539999 311.04 1.14 313.92 2.34C316.84 3.5 319.36 5.16 321.48 7.32C323.6 9.44 325.24 11.96 326.4 14.88C327.56 17.8 328.14 21.02 328.14 24.54C328.14 28.06 327.56 31.3 326.4 34.26C325.24 37.18 323.6 39.72 321.48 41.88C319.36 44 316.84 45.66 313.92 46.86C311.04 48.02 307.84 48.6 304.32 48.6ZM304.32 42.96C306.92 42.96 309.3 42.5 311.46 41.58C313.66 40.62 315.56 39.32 317.16 37.68C318.76 36 319.98 34.04 320.82 31.8C321.7 29.56 322.14 27.14 322.14 24.54C322.14 21.94 321.7 19.52 320.82 17.28C319.98 15.04 318.76 13.1 317.16 11.46C315.56 9.78 313.66 8.48 311.46 7.56C309.3 6.64 306.92 6.18 304.32 6.18C301.72 6.18 299.32 6.64 297.12 7.56C294.96 8.48 293.08 9.78 291.48 11.46C289.92 13.1 288.7 15.04 287.82 17.28C286.94 19.52 286.5 21.94 286.5 24.54C286.5 27.14 286.94 29.56 287.82 31.8C288.7 34.04 289.92 36 291.48 37.68C293.08 39.32 294.96 40.62 297.12 41.58C299.32 42.5 301.72 42.96 304.32 42.96ZM134.86 103C133.98 103 133.24 102.7 132.64 102.1C132.04 101.5 131.74 100.76 131.74 99.88V56.14H137.98V99.88C137.98 100.76 137.68 101.5 137.08 102.1C136.48 102.7 135.74 103 134.86 103ZM118.78 61.9C117.94 61.9 117.24 61.64 116.68 61.12C116.16 60.56 115.9 59.86 115.9 59.02C115.9 58.18 116.16 57.5 116.68 56.98C117.24 56.42 117.94 56.14 118.78 56.14H150.88C151.72 56.14 152.4 56.42 152.92 56.98C153.48 57.5 153.76 58.18 153.76 59.02C153.76 59.86 153.48 60.56 152.92 61.12C152.4 61.64 151.72 61.9 150.88 61.9H118.78ZM188.988 103C188.108 103 187.368 102.7 186.768 102.1C186.168 101.5 185.868 100.76 185.868 99.88V84.94H174.528V84.34C171.528 84.34 168.868 83.78 166.548 82.66C164.268 81.5 162.468 79.9 161.148 77.86C159.828 75.82 159.168 73.5 159.168 70.9C159.168 68.02 159.828 65.48 161.148 63.28C162.468 61.04 164.268 59.3 166.548 58.06C168.868 56.78 171.528 56.14 174.528 56.14H188.988C189.908 56.14 190.648 56.44 191.208 57.04C191.808 57.6 192.108 58.34 192.108 59.26V99.88C192.108 100.76 191.808 101.5 191.208 102.1C190.648 102.7 189.908 103 188.988 103ZM162.288 103C161.008 103 160.108 102.5 159.588 101.5C159.068 100.46 159.168 99.36 159.888 98.2L169.728 82.36L175.788 84.1L164.988 101.5C164.668 102.02 164.268 102.4 163.788 102.64C163.348 102.88 162.848 103 162.288 103ZM174.528 79.42H185.868V61.9H174.528C172.728 61.9 171.108 62.24 169.668 62.92C168.268 63.6 167.168 64.62 166.368 65.98C165.568 67.3 165.168 68.94 165.168 70.9C165.168 72.74 165.568 74.3 166.368 75.58C167.168 76.82 168.268 77.78 169.668 78.46C171.108 79.1 172.728 79.42 174.528 79.42ZM225.746 103.6C222.226 103.6 219.006 103.02 216.086 101.86C213.166 100.66 210.646 99 208.526 96.88C206.446 94.72 204.826 92.18 203.666 89.26C202.506 86.3 201.926 83.06 201.926 79.54C201.926 76.02 202.506 72.8 203.666 69.88C204.826 66.96 206.446 64.44 208.526 62.32C210.646 60.16 213.166 58.5 216.086 57.34C219.006 56.14 222.226 55.54 225.746 55.54C229.266 55.54 232.466 56.14 235.346 57.34C238.266 58.5 240.786 60.16 242.906 62.32C245.026 64.44 246.666 66.96 247.826 69.88C248.986 72.8 249.566 76.02 249.566 79.54C249.566 83.06 248.986 86.3 247.826 89.26C246.666 92.18 245.026 94.72 242.906 96.88C240.786 99 238.266 100.66 235.346 101.86C232.466 103.02 229.266 103.6 225.746 103.6ZM225.746 97.96C228.346 97.96 230.726 97.5 232.886 96.58C235.086 95.62 236.986 94.32 238.586 92.68C240.186 91 241.406 89.04 242.246 86.8C243.126 84.56 243.566 82.14 243.566 79.54C243.566 76.94 243.126 74.52 242.246 72.28C241.406 70.04 240.186 68.1 238.586 66.46C236.986 64.78 235.086 63.48 232.886 62.56C230.726 61.64 228.346 61.18 225.746 61.18C223.146 61.18 220.746 61.64 218.546 62.56C216.386 63.48 214.506 64.78 212.906 66.46C211.346 68.1 210.126 70.04 209.246 72.28C208.366 74.52 207.926 76.94 207.926 79.54C207.926 82.14 208.366 84.56 209.246 86.8C210.126 89.04 211.346 91 212.906 92.68C214.506 94.32 216.386 95.62 218.546 96.58C220.746 97.5 223.146 97.96 225.746 97.96ZM279.168 103.6C275.928 103.6 272.888 103 270.048 101.8C267.248 100.56 264.788 98.86 262.668 96.7C260.588 94.5 258.948 91.94 257.748 89.02C256.588 86.1 256.008 82.94 256.008 79.54C256.008 76.18 256.588 73.06 257.748 70.18C258.948 67.26 260.588 64.72 262.668 62.56C264.788 60.36 267.248 58.64 270.048 57.4C272.848 56.16 275.888 55.54 279.168 55.54C282.248 55.54 284.888 55.94 287.088 56.74C289.328 57.54 291.568 58.86 293.808 60.7C294.128 60.94 294.368 61.2 294.528 61.48C294.728 61.72 294.848 61.98 294.888 62.26C294.968 62.5 295.008 62.8 295.008 63.16C295.008 63.92 294.728 64.56 294.168 65.08C293.648 65.56 293.008 65.84 292.248 65.92C291.488 65.96 290.748 65.7 290.028 65.14C288.548 63.86 287.008 62.88 285.408 62.2C283.848 61.52 281.768 61.18 279.168 61.18C276.808 61.18 274.588 61.66 272.508 62.62C270.428 63.58 268.588 64.9 266.988 66.58C265.428 68.26 264.208 70.22 263.328 72.46C262.448 74.66 262.008 77.02 262.008 79.54C262.008 82.1 262.448 84.5 263.328 86.74C264.208 88.94 265.428 90.88 266.988 92.56C268.588 94.24 270.428 95.56 272.508 96.52C274.588 97.44 276.808 97.9 279.168 97.9C281.208 97.9 283.128 97.56 284.928 96.88C286.768 96.16 288.528 95.18 290.208 93.94C290.928 93.42 291.628 93.2 292.308 93.28C293.028 93.32 293.628 93.6 294.108 94.12C294.588 94.6 294.828 95.28 294.828 96.16C294.828 96.56 294.748 96.96 294.588 97.36C294.428 97.72 294.188 98.06 293.868 98.38C291.708 100.1 289.388 101.4 286.908 102.28C284.468 103.16 281.888 103.6 279.168 103.6ZM302.949 103C301.829 103 300.969 102.52 300.369 101.56C299.769 100.6 299.709 99.58 300.189 98.5L317.049 58.24C317.649 56.84 318.629 56.14 319.989 56.14C321.429 56.14 322.409 56.84 322.929 58.24L339.849 98.62C340.289 99.74 340.209 100.76 339.609 101.68C339.049 102.56 338.189 103 337.029 103C336.429 103 335.849 102.84 335.289 102.52C334.769 102.16 334.389 101.68 334.149 101.08L319.269 64.12H320.949L305.829 101.08C305.549 101.72 305.129 102.2 304.569 102.52C304.049 102.84 303.509 103 302.949 103ZM306.129 92.68L308.529 87.52H332.049L334.449 92.68H306.129Z" fill="#323238"/>
<rect y="1" width="30.4762" height="101.587" rx="1" fill="#E0AFDB"/>
<path d="M62.6964 11.7008C62.5816 11.1606 62.9265 10.6296 63.4667 10.5147L91.3355 4.59104C91.8757 4.47621 92.4067 4.82106 92.5216 5.36128L111.792 96.0219C111.907 96.5621 111.562 97.0931 111.022 97.2079L83.153 103.132C82.6128 103.246 82.0818 102.902 81.9669 102.361L62.6964 11.7008Z" fill="#BE59B4"/>
<rect x="32.0001" y="1" width="30.4762" height="101.587" rx="1" fill="#CF84C8"/>
</svg>
