<svg width="135" height="42" viewBox="0 0 135 42" fill="none" xmlns="http://www.w3.org/2000/svg">
<path d="M51.496 19C51.1587 19 50.875 18.885 50.645 18.655C50.415 18.425 50.3 18.1413 50.3 17.804V2.233C50.3 1.88033 50.415 1.59667 50.645 1.382C50.875 1.152 51.1587 1.037 51.496 1.037H56.993C58.0357 1.037 58.948 1.244 59.73 1.658C60.5273 2.05667 61.1483 2.61633 61.593 3.337C62.053 4.05767 62.283 4.88567 62.283 5.821C62.283 6.57233 62.076 7.25467 61.662 7.868C61.2633 8.466 60.7113 8.94133 60.006 9.294C61.018 9.53933 61.8307 10.0223 62.444 10.743C63.0573 11.4637 63.364 12.4067 63.364 13.572C63.364 14.63 63.111 15.5653 62.605 16.378C62.1143 17.1907 61.4243 17.8347 60.535 18.31C59.6457 18.77 58.626 19 57.476 19H51.496ZM52.692 16.792H57.476C58.1813 16.792 58.8023 16.6693 59.339 16.424C59.8757 16.1787 60.2973 15.8183 60.604 15.343C60.9107 14.8677 61.064 14.2773 61.064 13.572C61.064 12.9127 60.9107 12.3683 60.604 11.939C60.2973 11.5097 59.8757 11.1877 59.339 10.973C58.8023 10.743 58.1813 10.628 57.476 10.628H52.692V16.792ZM52.692 8.42H56.993C57.867 8.42 58.58 8.20533 59.132 7.776C59.6993 7.34667 59.983 6.695 59.983 5.821C59.983 4.947 59.6993 4.303 59.132 3.889C58.58 3.45967 57.867 3.245 56.993 3.245H52.692V8.42ZM68.1171 19C67.7798 19 67.4961 18.885 67.2661 18.655C67.0361 18.425 66.9211 18.1413 66.9211 17.804V2.233C66.9211 1.88033 67.0361 1.59667 67.2661 1.382C67.4961 1.152 67.7798 1.037 68.1171 1.037C68.4698 1.037 68.7534 1.152 68.9681 1.382C69.1981 1.59667 69.3131 1.88033 69.3131 2.233V17.804C69.3131 18.1413 69.1981 18.425 68.9681 18.655C68.7534 18.885 68.4698 19 68.1171 19ZM75.1024 19C74.7651 19 74.4814 18.885 74.2514 18.655C74.0214 18.425 73.9064 18.1413 73.9064 17.804V2.233C73.9064 1.88033 74.0214 1.59667 74.2514 1.382C74.4814 1.152 74.7651 1.037 75.1024 1.037H80.5994C81.6421 1.037 82.5544 1.244 83.3364 1.658C84.1338 2.05667 84.7548 2.61633 85.1994 3.337C85.6594 4.05767 85.8894 4.88567 85.8894 5.821C85.8894 6.57233 85.6824 7.25467 85.2684 7.868C84.8698 8.466 84.3178 8.94133 83.6124 9.294C84.6244 9.53933 85.4371 10.0223 86.0504 10.743C86.6638 11.4637 86.9704 12.4067 86.9704 13.572C86.9704 14.63 86.7174 15.5653 86.2114 16.378C85.7208 17.1907 85.0308 17.8347 84.1414 18.31C83.2521 18.77 82.2324 19 81.0824 19H75.1024ZM76.2984 16.792H81.0824C81.7878 16.792 82.4088 16.6693 82.9454 16.424C83.4821 16.1787 83.9038 15.8183 84.2104 15.343C84.5171 14.8677 84.6704 14.2773 84.6704 13.572C84.6704 12.9127 84.5171 12.3683 84.2104 11.939C83.9038 11.5097 83.4821 11.1877 82.9454 10.973C82.4088 10.743 81.7878 10.628 81.0824 10.628H76.2984V16.792ZM76.2984 8.42H80.5994C81.4734 8.42 82.1864 8.20533 82.7384 7.776C83.3058 7.34667 83.5894 6.695 83.5894 5.821C83.5894 4.947 83.3058 4.303 82.7384 3.889C82.1864 3.45967 81.4734 3.245 80.5994 3.245H76.2984V8.42ZM91.7005 19C91.3632 19 91.0795 18.885 90.8495 18.655C90.6349 18.425 90.5275 18.1413 90.5275 17.804V2.233C90.5275 1.89567 90.6425 1.612 90.8725 1.382C91.1025 1.152 91.3785 1.037 91.7005 1.037C92.0379 1.037 92.3215 1.152 92.5515 1.382C92.7815 1.612 92.8965 1.89567 92.8965 2.233V16.608H101.223C101.56 16.608 101.844 16.723 102.074 16.953C102.304 17.183 102.419 17.4667 102.419 17.804C102.419 18.1413 102.304 18.425 102.074 18.655C101.844 18.885 101.56 19 101.223 19H91.7005ZM106.48 19C106.143 19 105.859 18.885 105.629 18.655C105.399 18.425 105.284 18.1413 105.284 17.804V2.233C105.284 1.88033 105.399 1.59667 105.629 1.382C105.859 1.152 106.143 1.037 106.48 1.037C106.833 1.037 107.117 1.152 107.331 1.382C107.561 1.59667 107.676 1.88033 107.676 2.233V17.804C107.676 18.1413 107.561 18.425 107.331 18.655C107.117 18.885 106.833 19 106.48 19ZM120.573 19.23C119.223 19.23 117.989 19.0077 116.87 18.563C115.75 18.103 114.784 17.4667 113.972 16.654C113.174 15.826 112.553 14.8523 112.109 13.733C111.664 12.5983 111.442 11.3563 111.442 10.007C111.442 8.65767 111.664 7.42333 112.109 6.304C112.553 5.18467 113.174 4.21867 113.972 3.406C114.784 2.578 115.75 1.94167 116.87 1.497C117.989 1.037 119.223 0.807 120.573 0.807C121.922 0.807 123.149 1.037 124.253 1.497C125.372 1.94167 126.338 2.578 127.151 3.406C127.963 4.21867 128.592 5.18467 129.037 6.304C129.481 7.42333 129.704 8.65767 129.704 10.007C129.704 11.3563 129.481 12.5983 129.037 13.733C128.592 14.8523 127.963 15.826 127.151 16.654C126.338 17.4667 125.372 18.103 124.253 18.563C123.149 19.0077 121.922 19.23 120.573 19.23ZM120.573 17.068C121.569 17.068 122.482 16.8917 123.31 16.539C124.153 16.171 124.881 15.6727 125.495 15.044C126.108 14.4 126.576 13.6487 126.898 12.79C127.235 11.9313 127.404 11.0037 127.404 10.007C127.404 9.01033 127.235 8.08267 126.898 7.224C126.576 6.36533 126.108 5.62167 125.495 4.993C124.881 4.349 124.153 3.85067 123.31 3.498C122.482 3.14533 121.569 2.969 120.573 2.969C119.576 2.969 118.656 3.14533 117.813 3.498C116.985 3.85067 116.264 4.349 115.651 4.993C115.053 5.62167 114.585 6.36533 114.248 7.224C113.91 8.08267 113.742 9.01033 113.742 10.007C113.742 11.0037 113.91 11.9313 114.248 12.79C114.585 13.6487 115.053 14.4 115.651 15.044C116.264 15.6727 116.985 16.171 117.813 16.539C118.656 16.8917 119.576 17.068 120.573 17.068ZM55.613 41C55.2757 41 54.992 40.885 54.762 40.655C54.532 40.425 54.417 40.1413 54.417 39.804V23.037H56.809V39.804C56.809 40.1413 56.694 40.425 56.464 40.655C56.234 40.885 55.9503 41 55.613 41ZM49.449 25.245C49.127 25.245 48.8587 25.1453 48.644 24.946C48.4447 24.7313 48.345 24.463 48.345 24.141C48.345 23.819 48.4447 23.5583 48.644 23.359C48.8587 23.1443 49.127 23.037 49.449 23.037H61.754C62.076 23.037 62.3367 23.1443 62.536 23.359C62.7507 23.5583 62.858 23.819 62.858 24.141C62.858 24.463 62.7507 24.7313 62.536 24.946C62.3367 25.1453 62.076 25.245 61.754 25.245H49.449ZM76.3621 41C76.0247 41 75.7411 40.885 75.5111 40.655C75.2811 40.425 75.1661 40.1413 75.1661 39.804V34.077H70.8191V33.847C69.6691 33.847 68.6494 33.6323 67.7601 33.203C66.8861 32.7583 66.1961 32.145 65.6901 31.363C65.1841 30.581 64.9311 29.6917 64.9311 28.695C64.9311 27.591 65.1841 26.6173 65.6901 25.774C66.1961 24.9153 66.8861 24.2483 67.7601 23.773C68.6494 23.2823 69.6691 23.037 70.8191 23.037H76.3621C76.7147 23.037 76.9984 23.152 77.2131 23.382C77.4431 23.5967 77.5581 23.8803 77.5581 24.233V39.804C77.5581 40.1413 77.4431 40.425 77.2131 40.655C76.9984 40.885 76.7147 41 76.3621 41ZM66.1271 41C65.6364 41 65.2914 40.8083 65.0921 40.425C64.8927 40.0263 64.9311 39.6047 65.2071 39.16L68.9791 33.088L71.3021 33.755L67.1621 40.425C67.0394 40.6243 66.8861 40.77 66.7021 40.862C66.5334 40.954 66.3417 41 66.1271 41ZM70.8191 31.961H75.1661V25.245H70.8191C70.1291 25.245 69.5081 25.3753 68.9561 25.636C68.4194 25.8967 67.9977 26.2877 67.6911 26.809C67.3844 27.315 67.2311 27.9437 67.2311 28.695C67.2311 29.4003 67.3844 29.9983 67.6911 30.489C67.9977 30.9643 68.4194 31.3323 68.9561 31.593C69.5081 31.8383 70.1291 31.961 70.8191 31.961ZM90.4526 41.23C89.1033 41.23 87.8689 41.0077 86.7496 40.563C85.6303 40.103 84.6643 39.4667 83.8516 38.654C83.0543 37.826 82.4333 36.8523 81.9886 35.733C81.5439 34.5983 81.3216 33.3563 81.3216 32.007C81.3216 30.6577 81.5439 29.4233 81.9886 28.304C82.4333 27.1847 83.0543 26.2187 83.8516 25.406C84.6643 24.578 85.6303 23.9417 86.7496 23.497C87.8689 23.037 89.1033 22.807 90.4526 22.807C91.8019 22.807 93.0286 23.037 94.1326 23.497C95.2519 23.9417 96.2179 24.578 97.0306 25.406C97.8433 26.2187 98.4719 27.1847 98.9166 28.304C99.3613 29.4233 99.5836 30.6577 99.5836 32.007C99.5836 33.3563 99.3613 34.5983 98.9166 35.733C98.4719 36.8523 97.8433 37.826 97.0306 38.654C96.2179 39.4667 95.2519 40.103 94.1326 40.563C93.0286 41.0077 91.8019 41.23 90.4526 41.23ZM90.4526 39.068C91.4493 39.068 92.3616 38.8917 93.1896 38.539C94.0329 38.171 94.7613 37.6727 95.3746 37.044C95.9879 36.4 96.4556 35.6487 96.7776 34.79C97.1149 33.9313 97.2836 33.0037 97.2836 32.007C97.2836 31.0103 97.1149 30.0827 96.7776 29.224C96.4556 28.3653 95.9879 27.6217 95.3746 26.993C94.7613 26.349 94.0329 25.8507 93.1896 25.498C92.3616 25.1453 91.4493 24.969 90.4526 24.969C89.4559 24.969 88.5359 25.1453 87.6926 25.498C86.8646 25.8507 86.1439 26.349 85.5306 26.993C84.9326 27.6217 84.4649 28.3653 84.1276 29.224C83.7903 30.0827 83.6216 31.0103 83.6216 32.007C83.6216 33.0037 83.7903 33.9313 84.1276 34.79C84.4649 35.6487 84.9326 36.4 85.5306 37.044C86.1439 37.6727 86.8646 38.171 87.6926 38.539C88.5359 38.8917 89.4559 39.068 90.4526 39.068ZM110.931 41.23C109.689 41.23 108.524 41 107.435 40.54C106.362 40.0647 105.419 39.413 104.606 38.585C103.809 37.7417 103.18 36.7603 102.72 35.641C102.275 34.5217 102.053 33.3103 102.053 32.007C102.053 30.719 102.275 29.523 102.72 28.419C103.18 27.2997 103.809 26.326 104.606 25.498C105.419 24.6547 106.362 23.9953 107.435 23.52C108.508 23.0447 109.674 22.807 110.931 22.807C112.112 22.807 113.124 22.9603 113.967 23.267C114.826 23.5737 115.684 24.0797 116.543 24.785C116.666 24.877 116.758 24.9767 116.819 25.084C116.896 25.176 116.942 25.2757 116.957 25.383C116.988 25.475 117.003 25.59 117.003 25.728C117.003 26.0193 116.896 26.2647 116.681 26.464C116.482 26.648 116.236 26.7553 115.945 26.786C115.654 26.8013 115.37 26.7017 115.094 26.487C114.527 25.9963 113.936 25.6207 113.323 25.36C112.725 25.0993 111.928 24.969 110.931 24.969C110.026 24.969 109.175 25.153 108.378 25.521C107.581 25.889 106.875 26.395 106.262 27.039C105.664 27.683 105.196 28.4343 104.859 29.293C104.522 30.1363 104.353 31.041 104.353 32.007C104.353 32.9883 104.522 33.9083 104.859 34.767C105.196 35.6103 105.664 36.354 106.262 36.998C106.875 37.642 107.581 38.148 108.378 38.516C109.175 38.8687 110.026 39.045 110.931 39.045C111.713 39.045 112.449 38.9147 113.139 38.654C113.844 38.378 114.519 38.0023 115.163 37.527C115.439 37.3277 115.707 37.2433 115.968 37.274C116.244 37.2893 116.474 37.3967 116.658 37.596C116.842 37.78 116.934 38.0407 116.934 38.378C116.934 38.5313 116.903 38.6847 116.842 38.838C116.781 38.976 116.689 39.1063 116.566 39.229C115.738 39.8883 114.849 40.3867 113.898 40.724C112.963 41.0613 111.974 41.23 110.931 41.23ZM120.047 41C119.618 41 119.288 40.816 119.058 40.448C118.828 40.08 118.805 39.689 118.989 39.275L125.452 23.842C125.682 23.3053 126.058 23.037 126.579 23.037C127.131 23.037 127.507 23.3053 127.706 23.842L134.192 39.321C134.361 39.7503 134.33 40.1413 134.1 40.494C133.885 40.8313 133.556 41 133.111 41C132.881 41 132.659 40.9387 132.444 40.816C132.245 40.678 132.099 40.494 132.007 40.264L126.303 26.096H126.947L121.151 40.264C121.044 40.5093 120.883 40.6933 120.668 40.816C120.469 40.9387 120.262 41 120.047 41ZM121.266 37.044L122.186 35.066H131.202L132.122 37.044H121.266Z" fill="white"/>
<rect width="12.5074" height="41.6913" rx="1" fill="#E0AFDB"/>
<path d="M25.8529 4.96838C25.7381 4.42817 26.083 3.89715 26.6232 3.78232L36.9071 1.59641C37.4473 1.48159 37.9783 1.82643 38.0931 2.36665L45.7565 38.4202C45.8714 38.9604 45.5265 39.4914 44.9863 39.6062L34.7024 41.7922C34.1622 41.907 33.6312 41.5621 33.5163 41.0219L25.8529 4.96838Z" fill="#BE59B4"/>
<rect x="13.1328" width="12.5074" height="41.6913" rx="1" fill="#CF84C8"/>
</svg>
